# xmcd CD database file
#
# Track frame offsets:
#	150
#	5055
#	20644
#	36514
#	52419
#	68780
#	85719
#	100563
#	118216
#	136034
#	152482
#	173009
#
# Disc length: 2666 seconds
#
# Revision: 0
# Processed by: cddbd v1.5.1PL0 Copyright (c) Steve Scherf et al.
# Submitted via: CDex 1.51
#
DISCID=9a0a680c
DTITLE=Pleymo - Doctor Tank's Medicine Cake
DYEAR=1900
DGENRE=Rock
TTITLE0=Intro Dr Volodim Tank Feature Animation
TTITLE1=Tank Club
TTITLE2=New Wave
TTITLE3=Kubrick
TTITLE4=We All Gotta Get Up
TTITLE5=United Nowhere
TTITLE6=World
TTITLE7=Compact
TTITLE8=Tonight
TTITLE9=Shugga
TTITLE10=This Way I Feel
TTITLE11=Muk
EXTD=
EXTT0=
EXTT1=
EXTT2=
EXTT3=
EXTT4=
EXTT5=
EXTT6=
EXTT7=
EXTT8=
EXTT9=
EXTT10=
EXTT11=
PLAYORDER=
